<svg xmlns="http://www.w3.org/2000/svg" viewBox="149.491 45 1015.419 910.003"><path fill="#f5f8fc" d="m57.92,288.26c-5.42-92.97,49.47-177.03,122.82-204.36,47.12-17.56,107.71-12,150.81,13.62,65.17,38.74,41.45,94.28,102.05,129.03,60.75,34.84,107.04-8.11,177.91,25.65,75.54,35.98,94.31,118.77,96.63,129.83,17.84,85.01-30.17,175.19-113.79,220.39-118.22,63.9-274.09,19.77-319.69-48.09-25.3-37.65-11.02-74.22-51.48-104.19-37.84-28.02-73.39-13.1-106.56-38.47-21.71-16.6-52.38-48.09-58.7-123.42Z" transform="translate(96.1 40.48) scale(1.37095)"/><g transform="translate(246.89 134.34)"><path fill="#ff9996" d="m449.62,129.62s-10.95,21.7-46.17,27.53c-35.21,5.83-18.28-16.68-18.28-16.68l5.43-10.82,5.06-10.08,31.12-22.11c-.02.19-.02.37-.02.56-.13,11.92,22.86,31.6,22.86,31.6Z"/><path d="m426.78,97.46c-.02.19-.02.37-.02.56-2.88,11.98-10.2,28.11-28.84,31.7-3.07.59-5.48.53-7.32-.07l5.06-10.08,31.12-22.11Z"/><path fill="#112e5b" d="m325.62,351.2s-124.18,119.25-128.63,125.58l-.05.05h.01c-7.13,10.16-11.32,22.52-11.32,35.87,0,34.52,27.98,62.5,62.5,62.5,17.42,0,33.16-7.13,44.5-18.62h0s163-154.38,163-154.38c17-135-130-51-130-51Z"/><polygon fill="#f2f2f2" points="373.62 138.2 362.31 352.12 433.14 351.2 446.44 124.45 403.22 146.04 373.62 138.2"/><polygon fill="#f90065" points="395.65 352.04 378.62 331.54 398.83 164.2 405.37 164.2 421.98 332.54 395.65 352.04"/><path fill="#ff9996" d="M144.62 157.2l-16.35-19.62c-13.83-16.59-14.31-40.55-1.15-57.68l3.3-4.3c3.46-4.5 3.66-10.71.52-15.43l-19.31-28.97 63-22 20.58 61.04c1.66 4.91.87 10.32-2.12 14.55l-16.22 22.98c-3 4.25-2.4 10.07 1.4 13.63l8.36 7.8c17 16-25 48-42 28zM444.57 87.85c-1.83-3.23-5.14-5.16-8.83-5.54-1.35-15.98-11.61-25.97-25.47-26.1-15-.14-28.53 11.33-28.7 29.66s1.54 33.22 16.54 33.36c8.4.08 19.19-4.48 27.08-11.73 4.82.15 10.32-1.1 13.74-3.04 6.29-3.55 8.81-10.99 5.64-16.62z"/><path d="m440.89,97.56c-1.49-3.24-3.97-6.07-6.98-7.97l.57-.9c3.19,2.01,5.81,5,7.38,8.43l-.97.45Z"/><path fill="#fff" d="m439.01,93.47l-2.06,4.63"/><rect width="5.07" height="1.07" x="435.45" y="95.25" transform="rotate(-65.97 437.972 95.796)"/><ellipse cx="408.19" cy="84.73" rx="2.37" ry="1.7" transform="rotate(-89.46 408.2 84.717)"/><ellipse cx="390.56" cy="83.99" rx="2.37" ry="1.7" transform="rotate(-89.46 390.573 83.986)"/><path d="M390.89 96.17l-.37-1c2.86-1.06 5.23-3.26 6.5-6.04 1.27-2.78 1.39-6.01.32-8.87l1-.37c1.17 3.12 1.04 6.66-.35 9.69-1.39 3.03-3.98 5.44-7.1 6.6zM397.84 104.3l-.03-1.07c4.34-.11 8.58-2.97 10.3-6.95l.98.42c-1.92 4.42-6.44 7.47-11.26 7.6z"/><path d="m398.33,119.77c-.08,0-.15,0-.23,0v-1.07c.08,0,.15,0,.22,0,8.31,0,18.93-4.64,26.51-11.59l.16-.15h.22c4.64.15,10.06-1.04,13.46-2.96,2.93-1.65,5.1-4.22,6.12-7.24,1.01-2.99.77-6.06-.69-8.65-1.68-2.97-4.75-4.89-8.42-5.27l-.44-.05-.04-.44c-1.3-15.43-11.09-25.48-24.94-25.61v-1.07c14.32.13,24.47,10.38,25.97,26.16,3.83.52,7.02,2.6,8.8,5.75,1.61,2.85,1.89,6.23.77,9.52-1.11,3.26-3.45,6.04-6.61,7.82-3.5,1.98-9.01,3.22-13.8,3.11-7.86,7.15-18.43,11.73-27.06,11.73Z"/><path fill="#112e5b" d="m576.62,351.2l-132.8-1.94-65.2,166.94c-3,10-5,17.21-5,26.5,0,26.23,21.27,47.5,47.5,47.5,19.03,0,35.44-11.2,43.02-27.37l93.14-114.04c20.41-25,28.21-57.98,21.16-89.47l-1.82-8.12Z"/><polygon fill="#f90065" points="391.31 154.86 399.08 164.31 405.63 164.31 415.72 151.26 403.22 146.04 391.31 154.86"/><polygon fill="#f2f2f2" points="389.62 125.2 403.22 146.04 387.62 174.2 375.62 135.2 389.62 125.2"/><polygon fill="#f2f2f2" points="418.42 174.2 403.22 146.04 438.62 117.2 446.44 124.45 418.42 174.2"/><path fill="#b8c2d8" d="m444.16,124.56c-8.17,34.88-40.49,185.07-11.02,263.97,0,0,2.61,20.14,30.48.66s93-39,117-27l-73-236-42.09-1.71-12.53-4.66c-3.78-1.4-7.92.82-8.84,4.74Z"/><path d="m445.82,368.28c-8.39-52.1,7.32-163.59,8.57-172.27l-16.88-2.46,20.88-9.55c-2.55-30.7.59-46.64,1.78-52.65.1-.54.19-.99.26-1.37l1.05.19c-.07.38-.16.84-.27,1.38-1.18,6-4.32,21.94-1.73,52.73l.03.37-18.27,8.35,14.35,2.09-.08.53c-.17,1.18-17.32,118.68-8.65,172.47l-1.05.17Z"/><path fill="#ff9996" d="m462.62,272.2s-36-5-51,9c0,0-31,9.65-43,21s-40.66,32.91-40.66,32.91l49.66,3.09,35-6,54.21-9.11c34.79-2.89,31.79-55.89-4.21-50.89Z"/><path fill="#112e5b" d="m504.24,550.11c-30.61-11.83-182.49-70.65-216.61-85.92l-.03.05c-10.76-8.78-24.5-14.05-39.47-14.05-34.52,0-62.5,27.98-62.5,62.5,0,30.85,22.35,56.46,51.74,61.56,40.92,13.99,132.06,41.92,259.26,38.94,17.67,0,32-14.33,32-32,0-15.05-10.39-27.66-24.39-31.08Z"/><path fill="#112e5b" d="m468.55,542.63c-.02-26.23-21.3-47.48-47.53-47.47-18.51.01-34.53,10.62-42.36,26.08l-.12-.05-.82,2.02c-.51,1.13-.98,2.28-1.4,3.46l-83.55,205.49c-2.6,5-4.06,10.63-4.06,16.59.01,20.71,17.71,37.49,39.53,37.47,14.75-.01,27.59-7.7,34.37-19.07l.12.05,98.43-199.09c1.79-2.82,3.3-5.83,4.48-9.01h0s0,0,0,0c1.89-5.13,2.93-10.68,2.93-16.47Z"/><path fill="#b8c2d8" d="m380.36,133.67c-2.08,19.78-15.33,153.41-2.98,231.82,1.09,6.92-5.79,12.39-12.3,9.79-17.25-6.89-44.38-15.23-57.45-6.09l49-231,14-4,7.61-2.28c1.13-.34,2.25.58,2.12,1.76Z"/><polygon points="361.81 363.47 350.89 207.67 361.68 204.66 351.74 196.41 372.73 145.49 373.72 145.9 353.03 196.1 363.93 205.15 352.02 208.47 362.87 363.39 361.81 363.47"/><path fill="#ff9996" d="M307.12 351.23l-9.97.79c-7.85.63-15.62-1.91-21.59-7.03l-8.09-6.95 31.6-.85 9.96 6.15c3.51 2.17 2.21 7.56-1.9 7.88zM436.79 328.13l-66.2 24.49c-4.52 1.67-9.45 1.83-14.07.46l-24.89-9.88 29.8-1.53 56.71-18.45 18.66 4.92z"/><path fill="#ff9996" d="m348.12,353.23l-9.97.79c-7.85.63-15.62-1.91-21.59-7.03l-8.09-6.95,31.6-.85,9.96,6.15c3.51,2.17,2.21,7.56-1.9,7.88Z"/><path fill="#ff9996" d="m327.12,351.23l-9.97.79c-7.85.63-15.62-1.91-21.59-7.03l-8.09-6.95,31.6-.85,9.96,6.15c3.51,2.17,2.21,7.56-1.9,7.88Z"/><path d="m294.85,352.65c-7.15,0-14.2-2.58-19.64-7.25l-9.14-7.85,21.37-.58.03,1.07-18.6.5,7.04,6.04c5.82,5,13.55,7.52,21.2,6.91l9.97-.79.08,1.06-9.97.79c-.78.06-1.56.09-2.34.09Z"/><polygon fill="#b7b7b7" points="381.76 339.21 265.32 346.53 326.47 295.17 442.9 287.85 381.76 339.21"/><path d="m362.85,354.53c-2.19,0-4.39-.31-6.49-.94l-24.93-9.9.39-.99,24.89,9.88c4.43,1.32,9.31,1.16,13.69-.46l42.26-15.63.37,1-42.26,15.63c-2.53.94-5.22,1.41-7.91,1.41Z"/><path d="m335.85,354.65c-7.15,0-14.2-2.58-19.64-7.25l-8.09-6.95.7-.81,8.09,6.95c5.83,5,13.56,7.52,21.2,6.91l9.97-.79c1.26-.1,2.3-.74,2.92-1.8l.92.54c-.79,1.35-2.16,2.2-3.75,2.33l-9.97.79c-.78.06-1.56.09-2.34.09Z"/><path d="m314.85,352.65c-7.15,0-14.2-2.58-19.64-7.25l-8.09-6.95.7-.81,8.09,6.95c5.82,5,13.55,7.52,21.2,6.91l6.51-.52.08,1.06-6.51.52c-.78.06-1.56.09-2.34.09Z"/><polygon fill="#b8c2d8" points="379.85 335.52 274.83 342.66 312.6 311.74 417.62 304.6 379.85 335.52"/><polygon fill="#b8c2d8" points="376.59 305.71 337.89 307.48 351.38 296.19 390.09 294.42 376.59 305.71"/><rect width="19.03" height="1.07" x="358.11" y="294.66" transform="rotate(-2.99 367.288 295.044)"/><rect width="44.05" height="1.07" x="375.1" y="321.16" transform="rotate(-39.51 397.126 321.697)"/><polygon fill="#e5e5e5" points="382.06 339.08 265.2 346.54 213.62 267.2 214.62 265.2 329.05 257.58 382.06 339.08"/><polygon fill="#4f4f4f" points="383.62 342.2 265.7 350.11 265.29 346.5 382.06 339.05 383.62 342.2"/><polygon fill="#4f4f4f" points="382.06 339.05 442.9 287.85 443.62 292.2 383.62 342.2 382.06 339.05"/><path d="M425.37 91.96c-.42.57-1.35.23-1.28-.47.31-3.26-.27-6.56 1.53-9.29 1.44-2.18 3.23-6.62 1-9-1.68-1.8-5.38-1.1-9-1-10.77.31-30.8.55-39-10-2.51-3.23-5.03-10.84-5.03-14.93s.98-8.12 1.95-12.09c8.37 6.3 18.26 10.57 28.58 12.36 6.67 1.15 13.65 1.32 19.81 4.12s11.39 9.36 9.82 15.94c4.68-1.24 10.06 1.21 12.21 5.55 2.1 4.25-3.33 12.06-3.33 12.06-2.81-1.87-6.46-3.07-10-1-3 1.75-5.13 4.87-7.25 7.76zM521.62 722.2s15 3 20-6l37-145c0-7-.1-9.85-8.46-11.61-1.04-.22-2.15-.43-3.34-.63 0 0-21.2 115.33-45.2 163.24z"/><path fill="#ff9996" d="m425.62,274.2s-28.31,9.8-42.39,14.65c-12.61,4.35-.74,9.97,9.39,12.35,10.39,2.43,37.52-11.73,37.52-11.73l-4.52-15.27Z"/><path fill="#56576b" d="m186.53,727.55s6.1-19.36,65.1-.36c13.7,4.41,38.92,8.74,39,9,9.72,32.36,45.66,34.02,64,28,5.45-1.79,8,3,8,3l-10,41c-60.68-10.59-117.89-34.29-166.1-80.64Z"/><path d="m184.72,745.51c-5.09-14.31,6.91-35.31,26.48-16.78,13.24,12.54,26.84,24.58,41.3,35.67,23.53,18.05,53.49,25.83,82.99,29.92,4.78.66,9.86,1.36,13.57,4.41,3.71,3.05,4.6,8.74,1.58,12.48-17,21-60,1-66.83-2.76-25.02-13.8-34.17-17.24-60.02-27.48-15.41-6.11-33.03-18.49-39.06-35.44Z"/><path fill="#56576b" d="m490.62,613.2s20,78,21,93c.78,11.68,6,19.25,17,15,9.33-3.6,33.78-117.3,40.98-151.7,1.12-5.35,2.6-9.56-2.78-10.54l-63.2-8.76s32,33-13,63Z"/><path fill="#b8c2d8" d="m356.62,138.2s-130,50-147.6,67.8c-16.08,16.27,3.88,45.11,25.19,52.4,12.57,4.3,25.81,2.01,36.09-5.02l79.32-39.18,7-76Z"/><polygon fill="#f2f2f2" points="124.62 146.2 178.44 115.43 191.73 130.81 142.62 167.2 124.62 146.2"/><path fill="#b8c2d8" d="m261.03,180c-1.94-.66-69.29-55.54-69.29-55.54l-59.11,39.74,83.34,81.44c4.62,5.71,10.83,10.22,18.26,12.76,21.32,7.29,44.6-4.35,52-26,7.4-21.65-3.88-45.11-25.19-52.4Z"/><path d="m260.85,180.5c-.36-.12-1.44-.49-42.87-34.04l.67-.83c35.56,28.8,41.93,33.58,42.56,33.87l-.36,1Z"/><path fill="#b8c2d8" d="m478.62,184.2c1,1-22-45,11-55,33-10,44,1,58,23s68.62,110.52,68.62,110.52c0,0,20.38,37.48-22.62,49.48-39.03,10.89-54-30-54-30l-61-98Z"/><rect width="1.07" height="100.14" x="504.55" y="176.63" transform="rotate(-31.9 505.075 226.707)"/><polygon fill="#f2f2f2" points="443.62 268.2 457.62 328.2 485.62 322.2 464.87 264.48 443.62 268.2"/><path fill="#b8c2d8" d="m456.99,265.81l12.63,62.38,119.42-15.41c3.65-.47,7.17-1.61,10.39-3.4,9.24-5.15,25.52-17.41,18.2-37.19-10-27-27.51-27.71-42.25-25.86-14.75,1.86-118.38,19.47-118.38,19.47Z"/><polygon points="387.48 175.55 378.58 146.63 379.6 146.31 387.77 172.84 402.59 146.07 392.36 130.37 393.26 129.79 403.84 146.02 387.48 175.55"/><polygon points="418.41 175.3 402.75 146.3 403.69 145.79 418.43 173.09 432.67 147.8 433.6 148.33 418.41 175.3"/><path d="M457.08 266.34l-.09-.51-.52.13-.12-.54.54-.13 7.87-1.33c18.84-3.19 65.57-11.08 92.49-15.39l.17 1.05c-26.92 4.31-73.64 12.2-92.48 15.39l-7.87 1.34zM239.75 188.37l-.47-.96c43.5-21.34 116.42-49.44 117.15-49.72l.38 1c-.73.28-73.61 28.36-117.07 49.68zM395.38 302.01c-1.05 0-2.02-.09-2.88-.29-6.92-1.62-15.06-4.81-15.25-8.48-.1-1.91 1.8-3.51 5.8-4.89 5.18-1.78 12.27-4.24 19.18-6.62l.35 1.01c-6.91 2.39-14 4.84-19.18 6.62-3.4 1.17-5.15 2.49-5.09 3.83.14 2.74 7.36 5.84 14.43 7.49 10.09 2.37 36.88-11.54 37.15-11.69l.49.95c-1.02.53-23.26 12.07-35 12.07z"/><rect width="95.51" height="1.07" x="294.72" y="204.37" transform="rotate(-78.02 342.49 204.901)"/><rect width="100.23" height="1.07" x="494.21" y="318.25" transform="rotate(-7.36 544.277 318.762)"/><rect width="163.98" height="1.07" x="310.63" y="481.66" transform="rotate(-68.88 392.625 482.193)"/><rect width="1.07" height="83.93" x="338.59" y="443.23" transform="rotate(-68.33 339.08 485.182)"/><ellipse cx="294.11" cy="305.67" fill="#fff" rx="8.97" ry="11.64" transform="rotate(-41.21 294.137 305.679)"/><rect width="1.07" height="72.95" x="348.59" y="251.72" transform="rotate(-33.25 349.184 288.215)"/><polygon fill="#ffcc83" points="120.43 86.4 44.71 11.01 152.69 -88.76 228.42 -13.36 120.43 86.4"/><path d="m120.42,86.98L44.11,10.99l108.6-100.33L229.02-13.35l-108.6,100.33ZM45.31,11.02l75.13,74.8L227.81-13.37l-75.13-74.8L45.31,11.02Z"/><polygon fill="#fff" points="122.1 77.36 54.19 9.75 151.03 -79.72 218.94 -12.1 122.1 77.36"/><path d="m122.09,77.88L53.65,9.74l97.39-89.97L219.48-12.09l-97.39,89.97ZM54.73,9.76l67.38,67.08L218.4-12.11l-67.38-67.08L54.73,9.76Z"/><polygon fill="#f90065" points="140.64 11.17 138.39 -1.35 112.47 10.48 109.67 -8.25 88.15 .48 87.41 -1.33 111.24 -11 114.03 7.62 139.88 -4.19 142.18 8.65 177.75 -2.25 182.99 7.46 181.27 8.39 176.79 .1 140.64 11.17"/><polygon points="135.56 58.13 78.09 .91 78.34 .68 136.78 -53.31 137.22 -52.82 79.04 .93 136.02 57.66 135.56 58.13"/><path fill="#ff9996" d="m135.62,72.2l-8.46-32.32c-1.59-6.07-.11-12.53,3.95-17.3h0c2.07-2.43,5.96-1.88,7.27,1.03,5.67,12.6,18.81,39.6,27.24,39.6l-30,9Z"/><path d="m165.62,63.73c-8.49,0-21.02-25-27.73-39.91-.54-1.2-1.64-2.02-2.94-2.21-1.3-.19-2.59.3-3.44,1.31-3.95,4.64-5.38,10.93-3.84,16.82l4.74,18.1-1.03.27-4.74-18.1c-1.63-6.23-.11-12.88,4.06-17.79,1.09-1.28,2.74-1.91,4.41-1.67s3.07,1.29,3.76,2.82c15.96,35.45,24.03,39.28,26.75,39.28v1.07Z"/></g><g transform="rotate(-19.542 881.627 -2322.619) scale(.78365)"><path fill="#f2f2f2" d="m224.05,135.27c0-48.74-39.51-88.25-88.25-88.25s-88.25,39.51-88.25,88.25c0,23.97,9.57,45.7,25.08,61.6h0s.05.05.13.12c.34.35.68.7,1.02,1.04,4.05,4.2,17.47,19.13,17.47,32.48h88.88c0-11.68,10.27-24.57,15.55-30.42,17.45-16.12,28.38-39.19,28.38-64.82Z"/><path fill="#f90065" d="m117.5,236.92c-5.54-15.09-12.57-29.74-20.9-43.54-3.55-5.89-6.54-10.43-9.17-14.43-6.05-9.19-9.7-14.75-11.9-24.27-5.28-22.9,2.67-44.08,18.1-48.22,6.54-1.76,15.02.54,22.4,6,5.79-6.63,13.56-10.72,21.46-11.27,7.59-.52,15.87,2.24,22.77,7.5,5.68-5,12.43-7.92,17.56-7.5,6.96.57,14.51,5.8,19.23,13.33,5.58,8.88,6.46,19.46,2.48,29.8-6.25,16.26-10.33,23.18-19.26,38.35-1.59,2.7-3.33,5.65-5.26,8.97-12.61,21.61-14.62,34.12-15.61,45.07l-1.74-.16c1-11.15,3.06-23.88,15.84-45.8,1.93-3.32,3.68-6.27,5.27-8.97,8.88-15.08,12.94-21.96,19.14-38.08,3.77-9.81,2.95-19.84-2.33-28.24-4.37-6.97-11.57-12-17.9-12.52-4.61-.38-10.74,2.28-16.03,6.86.57.48,1.13.97,1.68,1.49,5.27,4.92,8.3,10.48,8.3,15.25,0,7.14-3.67,14.85-9.61,14.85-7.68,0-11.19-10.46-11.36-14.82-.21-5.3,2.82-11.37,8.3-16.67-6.51-4.88-14.24-7.44-21.34-6.96-7.41.51-14.71,4.35-20.19,10.59,6.81,5.51,10.74,12.32,10.52,18.27-.22,5.9-4.67,13.07-9.58,13.07-.01,0-.03,0-.04,0-4.62-.04-8.88-6.9-9.6-13-.66-5.61,1.64-12.31,6.19-18.07-6.94-5.11-14.81-7.27-20.83-5.65-14.52,3.9-21.92,24.16-16.85,46.14,2.13,9.22,5.71,14.67,11.66,23.7,2.64,4.02,5.64,8.57,9.21,14.49,8.38,13.89,15.46,28.64,21.04,43.84l-1.64.6Zm-1.21-122.05c-4.28,5.4-6.45,11.63-5.84,16.8.61,5.17,4.26,11.43,7.88,11.46h.02c3.54,0,7.63-5.95,7.83-11.39.19-5.33-3.59-11.77-9.89-16.87Zm44.04-3.89s-.02.02-.03.03c-5.13,4.92-8.09,10.7-7.9,15.48.15,3.74,3.22,13.14,9.61,13.14,4.7,0,7.86-6.78,7.86-13.11,0-4.22-2.89-9.44-7.74-13.97-.58-.55-1.18-1.07-1.8-1.58Z"/><path fill="#ffcc83" d="m180.36,230.51v13.1c0,.29,0,.59-.01.88-.47,24.2-20.23,43.68-44.55,43.68s-44.09-19.48-44.56-43.68c-.01-.29-.01-.59-.01-.88v-13.1h89.13Z"/><path fill="#112e5b" d="m180.36,242.74v.87c0,.29,0,.59-.01.88h-89.11c-.01-.29-.01-.59-.01-.88v-.87h89.13Z"/><path d="m135.8,289.05c-15.12,0-29.2-7.49-37.67-20.03l1.45-.98c8.15,12.06,21.69,19.26,36.23,19.26,9.3,0,18.18-2.88,25.68-8.34l1.03,1.41c-7.8,5.68-17.04,8.68-26.71,8.68Z"/><rect width="70.67" height="1.75" x="109.45" y="229.63"/><path d="M73.15 198.65c-.28-.28-.55-.56-.83-.84l-.32-.32-1.95-1.89.19.03c-15.22-16.51-23.58-37.84-23.58-60.36 0-6.99.81-13.96 2.42-20.7l1.7.4c-1.57 6.61-2.37 13.44-2.37 20.29 0 22.91 8.82 44.57 24.83 60.99l.75.77c.12.13.25.25.37.38h0s.69.71.69.71l-1.21-.18-.7.71zM208.25 86.41c-16.3-24.12-43.38-38.52-72.46-38.52v-1.75c29.65 0 57.28 14.69 73.9 39.29l-1.45.98z"/><path fill="#fff" d="M212.31 127.77c-.51-5.34-1.56-10.63-3.1-15.73l1.67-.51c1.58 5.21 2.65 10.61 3.17 16.07l-1.74.17zM209.81 162.93l-1.65-.58c3-8.57 4.53-17.56 4.53-26.75h1.75c0 9.38-1.56 18.58-4.63 27.33zM66.03 102.36l-1.59-.72c2.35-5.19 5.25-10.14 8.62-14.72l1.41 1.04c-3.3 4.48-6.14 9.32-8.44 14.4zM81.01 80.19l-1.26-1.21c8.24-8.59 18.4-15.28 29.39-19.34l.61 1.64c-10.74 3.97-20.68 10.51-28.74 18.91z"/></g><g transform="rotate(35.637 -292.787 1843.933) scale(.86626)"><rect width="17.48" height="45.44" x="59.78" y="53.57" fill="#112e5b" rx="4.11" ry="4.11" transform="rotate(-30.31 68.52 76.298)"/><path fill="#ffcc83" d="m49.34,78.99c-.9,0-1.78-.46-2.27-1.3-.73-1.25-.31-2.86.94-3.59l28.66-16.76c1.25-.73,2.86-.31,3.59.94.73,1.25.31,2.86-.94,3.59l-28.66,16.76c-.42.24-.87.36-1.32.36Z"/><rect width="8.74" height="27.96" x="115.7" y="57.06" fill="#b8c2d8"/><rect width="33.2" height="12.23" x="103.47" y="50.07" fill="#112e5b" rx="3.35" ry="3.35"/><circle cx="135.8" cy="178.52" r="102.23" fill="#f2f2f2"/><path fill="#b8c2d8" d="m135.8,285.12c-58.78,0-106.6-47.82-106.6-106.6s47.82-106.6,106.6-106.6,106.6,47.82,106.6,106.6-47.82,106.6-106.6,106.6Zm0-204.46c-53.96,0-97.86,43.9-97.86,97.86s43.9,97.86,97.86,97.86,97.86-43.9,97.86-97.86-43.9-97.86-97.86-97.86Z"/><rect width="79.18" height="1.75" x="118.05" y="156.67" fill="#ffcc83" transform="rotate(-62.46 157.641 157.545)"/><path fill="#f90065" d="m142.9,173.72c5.84,4.91,6.6,13.62,1.69,19.46-4.91,5.84-13.62,6.6-19.46,1.69-5.84-4.91-41.41-47.77-38.92-50.73s50.85,24.67,56.69,29.58Z"/><path fill="#112e5b" d="m64.08,126.42l-1.36-1.1c13.58-16.82,32.67-28.74,53.74-33.56,21.07-4.83,43.44-2.4,62.99,6.82l-.75,1.58c-19.2-9.06-41.16-11.44-61.85-6.7-20.69,4.74-39.43,16.44-52.77,32.96Z"/><path fill="#112e5b" d="m73.72,131.11l-1.35-1.12c11.63-14.02,27.75-24.26,45.38-28.85,17.63-4.58,36.7-3.48,53.68,3.1l-.63,1.63c-16.65-6.45-35.33-7.53-52.61-3.04-17.28,4.49-33.07,14.53-44.47,28.27Z"/><path fill="#112e5b" d="m80.92,134.08l-1.19-1.28c22.12-20.54,54.97-27.82,83.71-18.56l-.54,1.66c-28.13-9.07-60.31-1.94-81.98,18.18Z"/><path d="m95.84,278.29c-18.08-7.27-33.88-19.35-45.72-34.96l1.39-1.06c11.64,15.35,27.19,27.24,44.98,34.39l-.65,1.62Zm39.96-1.04v-1.75c53.48,0,96.99-43.51,96.99-96.99h1.75c0,54.44-44.29,98.74-98.74,98.74Zm79.26-168.63c-20.1-22.77-48.99-35.83-79.26-35.83v-1.75c30.77,0,60.14,13.28,80.57,36.42l-1.31,1.16Z"/></g><g transform="rotate(-14.339 1621.664 -214.327) scale(.90403)"><path fill="#ffcc83" d="m211.37,142.68c0,17.04-5.03,32.91-13.7,46.2-.42.65-.84,1.28-1.28,1.9-11.87,17.2-29.92,29.78-50.92,34.55-1.01.23-2.03.44-3.06.61-5.12.98-10.4,1.49-15.8,1.49-7.37,0-14.54-.94-21.35-2.73-.56-.14-1.12-.28-1.68-.44-8.21-2.32-15.94-5.85-22.95-10.4h-.02c-.72-.47-1.45-.96-2.15-1.45h-.02c-22.11-15.29-36.59-40.84-36.59-69.74,0-.59,0-1.19.03-1.78,0-.82.03-1.66.07-2.48,1.45-29.29,17.77-54.66,41.57-68.75.56-.33,1.12-.65,1.68-.96h.02c12.23-6.87,26.35-10.78,41.38-10.78,6.27,0,12.39.68,18.28,1.97,1.08.24,2.15.49,3.2.77h.02c1.92.51,3.79,1.07,5.66,1.7l1.64.58c4.07,1.47,8,3.25,11.76,5.3l3.79,2.22s.03.02.03.03c12.6,7.72,22.98,18.65,30.07,31.67l.89,1.7c6.01,11.64,9.4,24.83,9.4,38.83Z"/><path fill="#ffcc83" d="m148.39,275.49h-1.75v-32.54l.7-.14c47.24-9.72,81.52-51.83,81.52-100.13,0-42.61-26.73-81.03-66.61-95.85l-7.08,16.04-55.4,178.79c2.62.63,10.77,2.44,20.34,3.04l.82.05v30.73h-1.75v-29.1c-11.42-.8-20.65-3.24-20.74-3.26l-.88-.23.27-.87,55.73-179.82,7.76-17.59.77.28c40.99,14.86,68.52,54.16,68.52,97.78,0,48.89-34.53,91.54-82.22,101.7v31.11Z"/><path fill="#f2f2f2" d="M148.09 60.67c-15.9 5.21-29.34 12.58-40.21 22.07-.51.44-1 .87-1.49 1.33-8.41 7.64-15.19 16.6-20.32 26.82-8.83 17.55-11.69 36.86-11.74 54.47-.02.7 0 1.38.02 2.06.17 19.12 3.62 36.09 6.27 46.45-.72-.47-1.45-.96-2.15-1.45h-.02c-2.66-10.8-5.8-27.49-5.87-46.1 0-.68 0-1.36.02-2.04.14-17.58 3.13-36.72 11.9-54.17 5.14-10.22 11.9-19.21 20.24-26.89.49-.45.98-.89 1.47-1.33 10.52-9.31 23.45-16.67 38.69-21.98 1.08.24 2.15.49 3.2.77zM190.91 138.06c-1.7 19.59-9.26 37.57-18.42 52.69-.35.59-.72 1.19-1.08 1.77-8.56 13.77-18.35 25.02-25.93 32.82-1.01.23-2.03.44-3.06.61 7.55-7.55 17.88-19.08 26.91-33.41.37-.58.73-1.15 1.1-1.75 9.3-15.12 17.04-33.17 18.73-52.88 1-11.52-.12-22.82-3.36-33.85-.17-.58-.35-1.17-.54-1.77-3.65-11.69-9.7-23.07-18.09-34.06l3.79 2.22s.03.02.03.03c7.39 10.31 12.77 20.94 16.11 31.86h.02c.17.58.35 1.17.51 1.77 3.18 11.04 4.26 22.39 3.27 33.95zM155.42 62.94l-10.47 33.78-.52 1.71-26.61 85.82-.52 1.68-12.02 38.78c-.56-.14-1.12-.28-1.68-.44l12.04-38.81.51-1.68 26.6-85.79.52-1.71h.02l10.5-33.92 1.64.58z"/><path fill="#f2f2f2" d="M201.08 102.15c-4.77.24-9.42.3-13.95.19h-.02c-.63 0-1.24-.02-1.85-.05-14.85-.42-28.31-2.53-40.32-5.57-.56-.14-1.12-.28-1.68-.44h-.02c-13.81-3.65-25.62-8.53-35.37-13.54-.58-.28-1.14-.58-1.68-.86-8.81-4.65-15.83-9.33-20.97-13.18h-.02c-.56.31-1.12.63-1.68.96 5.16 3.93 12.25 8.76 21.2 13.54.54.28 1.1.58 1.66.86.59.31 1.21.63 1.82.94 9.03 4.56 20.6 9.33 34.51 12.98.56.16 1.12.3 1.7.44 12.13 3.06 25.95 5.23 41.38 5.63.61.03 1.22.05 1.83.05 1.15.02 2.32.03 3.51.03 3.53 0 7.13-.09 10.82-.3l-.89-1.7zM197.67 188.88c-.42.65-.84 1.28-1.28 1.9-8.72 1.07-17.06 1.63-24.99 1.73-.7.02-1.4.03-2.08.02-.35.02-.7.02-1.05.02-19.28 0-36.24-2.57-50.99-6.62-.56-.16-1.12-.31-1.66-.47-16.55-4.7-30.25-11.25-41.28-18.03-.59-.37-1.19-.73-1.77-1.1-1.89-1.19-3.7-2.39-5.43-3.6-10.5-7.27-18.86-14.98-25.25-21.83 0-.82.03-1.66.07-2.48 6.47 7.09 15.15 15.24 26.25 22.93 1.4.98 2.87 1.96 4.39 2.94.56.35 1.14.72 1.73 1.08 11.06 6.9 24.94 13.63 41.8 18.42.56.17 1.12.33 1.68.47 15.13 4.16 32.64 6.75 52.62 6.54.68 0 1.36-.02 2.06-.03 8-.14 16.39-.73 25.18-1.87z"/><path fill="#112e5b" d="m104.01,260.63h59.21c5.36,0,9.71,4.35,9.71,9.71v7.76h-78.64v-7.76c0-5.36,4.35-9.71,9.71-9.71Z"/><rect width="124.07" height="10.49" x="71.58" y="278.11" fill="#f90065"/><path d="M212.25 142.68h-1.75c0-23.89-10.23-46.71-28.07-62.62l1.16-1.3c18.21 16.24 28.66 39.54 28.66 63.93zM119.96 228.05c-21.44-1.65-41.35-11.26-56.05-27.07-14.78-15.89-22.92-36.59-22.92-58.31h1.75c0 21.27 7.97 41.55 22.45 57.12 14.4 15.48 33.9 24.9 54.91 26.52l-.13 1.74z"/><rect width="76.89" height="1.75" x="73.33" y="288.59"/></g></svg>