<svg xmlns="http://www.w3.org/2000/svg" viewBox="34 158.91 1151.469 749.819"><g transform="translate(98.471 217.704) scale(.9864)"><path fill="#f2f2f2" d="M918.48-21.11h-353.61c-16.6 0-30.05 13.47-30.05 30.08v396.59c0 8.93 11.95 11.85 16.09 3.94 21.97-41.96 51.09-70.92 96.94-70.92h270.63c16.6 0 30.05-13.47 30.05-30.08V8.97c0-16.61-13.46-30.08-30.05-30.08zM411.29 265.34H57.68c-16.6 0-30.05 13.47-30.05 30.08v299.53c0 16.61 13.46 30.08 30.05 30.08h270.63c45.85 0 74.98 28.96 96.94 70.92 4.14 7.91 16.09 4.99 16.09-3.94v-396.59c0-16.61-13.46-30.08-30.05-30.08z"/></g><g transform="rotate(-16.969 850.785 -392.293) scale(.9863)"><path fill="#f9f9ff" d="m178.12,50.76h-86.46c-20.38,0-36.9,16.45-36.9,36.75v95.93c0,30.92,15.02-22.94,38.06-22.94h85.29c20.38,0,36.9-16.45,36.9-36.75v-36.23c0-20.3-16.52-36.75-36.9-36.75Z"/><path fill="#ffcc83" d="m136.62,68.5l9.64,19.46c.28.57.83.96,1.46,1.05l21.56,3.12c1.59.23,2.22,2.17,1.07,3.29l-15.6,15.15c-.46.44-.66,1.08-.56,1.71l3.68,21.39c.27,1.57-1.39,2.78-2.81,2.03l-19.28-10.1c-.56-.3-1.24-.3-1.8,0l-19.28,10.1c-1.42.74-3.08-.46-2.81-2.03l3.68-21.39c.11-.63-.1-1.26-.56-1.71l-15.6-15.15c-1.15-1.12-.51-3.06,1.07-3.29l21.56-3.12c.63-.09,1.18-.49,1.46-1.05l9.64-19.46c.71-1.43,2.76-1.43,3.47,0Z"/><path d="m56.93,193.76c-.18,0-.36-.03-.53-.08-1.7-.53-2.39-3.49-2.39-10.25v-95.93h1.5v95.93c0,7.8,1.02,8.72,1.33,8.82,1.16.35,4.43-4.39,7.32-8.58,6.58-9.53,16.53-23.93,28.66-23.93h85.29v1.5h-85.29c-11.34,0-21.02,14.01-27.42,23.28-3.9,5.65-6.38,9.24-8.47,9.24Z"/><path d="m113.8,136.67c-.55,0-1.11-.17-1.58-.51-.83-.6-1.24-1.61-1.07-2.62l3.68-21.39c.07-.38-.06-.77-.34-1.05l-15.6-15.15c-.74-.72-1-1.77-.68-2.74.32-.98,1.15-1.67,2.17-1.82l21.56-3.12c.38-.06.72-.3.89-.65l9.64-19.46c.46-.92,1.38-1.49,2.41-1.49s1.95.57,2.41,1.49l9.64,19.46c.17.35.51.59.89.65l21.56,3.12c1.02.15,1.85.85,2.17,1.82.32.98.06,2.03-.68,2.74l-15.6,15.15c-.28.27-.41.66-.34,1.04l3.68,21.39c.17,1.01-.24,2.02-1.07,2.62-.83.6-1.92.68-2.83.2l-19.28-10.1c-.35-.18-.76-.18-1.1,0l-19.29,10.1c-.4.21-.83.31-1.25.31Zm21.09-68.5c-.46,0-.86.25-1.06.66l-9.64,19.46c-.39.79-1.15,1.34-2.02,1.46l-21.56,3.12c-.46.07-.81.37-.96.8-.14.44-.03.89.3,1.21l15.6,15.15c.63.62.92,1.5.77,2.37l-3.68,21.39c-.08.45.1.88.47,1.15.37.27.84.3,1.25.09l19.29-10.1c.78-.41,1.72-.41,2.5,0l19.28,10.1c.41.21.87.18,1.25-.09.37-.27.55-.7.47-1.15l-3.68-21.39c-.15-.87.14-1.75.77-2.37l15.6-15.15c.33-.32.44-.77.3-1.21-.14-.44-.5-.74-.96-.8l-21.56-3.12c-.88-.13-1.63-.67-2.02-1.46l-9.64-19.46c-.2-.41-.6-.66-1.06-.66Z"/></g><g transform="rotate(12.926 -2347.738 3575.956) scale(.9863)"><rect width="248.5" height="126.51" x="10.26" y="59.01" fill="#fad0c9" rx="36.68" ry="36.68"/><path fill="#32ce95" d="m113.27,123.21c0,21.82-17.75,39.51-39.63,39.45-21.17-.05-38.78-17.12-39.41-38.25-.68-22.73,17.92-41.31,40.7-40.64l-5.07,39.02c-.25,1.94,1.46,3.57,3.39,3.22l39.77-7.22c.17,1.45.25,2.93.25,4.42Z"/><rect width="16.69" height="16.66" x="140.46" y="94.63" fill="#f2f2f2" rx="4.45" ry="4.45"/><rect width="69.4" height="16.66" x="162.42" y="94.63" fill="#f2f2f2" rx="4.45" ry="4.45"/><rect width="69.4" height="16.66" x="162.42" y="129.7" fill="#f2f2f2" rx="4.45" ry="4.45"/><rect width="16.69" height="16.66" x="140.46" y="129.7" fill="#f2f2f2" rx="4.45" ry="4.45"/><path fill="#f90065" d="m75.17,118.83l5.65-43.54c.11-.84.81-1.48,1.66-1.53,11.43-.62,38.24,1.7,40.61,37.13.06.88-.57,1.67-1.44,1.83l-44.42,8.06c-1.17.21-2.21-.77-2.06-1.95Z"/><path d="M11.01 148.87h-1.5v-53.21c0-20.62 16.81-37.39 37.47-37.39v1.49c-19.83 0-35.97 16.11-35.97 35.9v53.21zM222.05 186.26h-77.69v-1.49h77.69c19.83 0 35.97-16.11 35.97-35.9v-53.21h1.5v53.21c0 20.62-16.81 37.39-37.47 37.39z"/></g><g transform="translate(-2.998 353.416) scale(.64483)"><path fill="#7c4b33" d="m754.49,471.41s11.6-47.72,34.79-59.33c17.93-8.97,32.79-29.52,38.6-38.37,2.13-3.25,6.01-4.94,9.81-4.15,6.19,1.28,13.56,6.6,9.57,25.76-6.44,30.95-32.21,42.56-19.33,41.27s47.74-14.42,61.85-24.51c18.04-12.9,25.68-25.51,47.68-27.09,18.04-1.29,9.02,16.77,9.02,16.77,0,0,16.75-6.45,23.19,0,6.44,6.45-1.29,14.19-11.6,20.64,0,0,27.06,5.16-2.58,27.09,0,0,16.75,0,5.15,14.19-11.6,14.19-28.35,34.82-28.35,34.82,0,0-33.5,21.93-57.99,28.37-16.93,4.46-43.09,13.23-57.63,18.22-7.69,2.64-16,2.86-23.79.53-13.07-3.9-32.53-11.87-42.28-26.5-15.46-23.22,3.87-47.72,3.87-47.72Z"/><path fill="#ffcc83" d="m691.39,742.77c-4.72,1.35-9.69,2.08-14.83,2.08H122.15l40.13-349.7c1.25-10.98,8.56-20.33,18.89-24.2l62.9-23.53,1.69-.63.66-.03,180.68-6.95,118.72,39.87,129.31,331.56s6.95,12.78,16.27,31.52Z"/><path fill="#7c4b33" d="m389.58,304.7l26.09,42.06s39.08,43.91-31.11,40.16c-70.19-3.75-97.42-47.41-97.42-47.41,0,0,40.74-49.23,35.82-74.35l66.62,39.54Z"/><polygon fill="#f2f2f2" points="443.65 344.99 444.96 538.42 445.67 641.74 391.98 562.54 245.75 346.8 284.16 337.27 372.34 368.66 374.07 369.18 380.76 363.78 420.28 331.76 443.65 344.99"/><path fill="#ffcc83" d="m835.09,551.8c-1.71,1.26-3.5,2.45-5.37,3.55l-49.66,39.05-130.74,102.82c-10,5.89-21.31,8.93-32.7,8.93-5.67,0-11.37-.75-16.93-2.27-16.76-4.57-38.71-46.68-47.14-61.9l-97.93-176.7c-17.27-31.14-6.03-70.4,25.09-87.67,31.11-17.28,70.33-6.04,87.58,25.11l65.86,118.83,75.82-44.7,49.35-29.1,76.77,104.05Z"/><path fill="#f90065" d="m445.23,537.13l.7,103.32-53.69-79.2c-1.01-55.53-5.03-131.83-5.03-131.83l17.71-3.91,40.3,111.62Z"/><polygon fill="#f90065" points="364.34 396.07 387.22 429.41 404.92 425.5 411.1 377.92 388.27 360.82 374.16 370.18 364.34 396.07"/><polygon fill="#f2f2f2" points="284.6 337.13 305.64 307.42 382.58 365.38 364.73 447.82 284.6 337.13"/><polygon fill="#f2f2f2" points="433.56 430.2 382.58 365.38 417.69 308.07 443.94 345.01 433.56 430.2"/><path d="m430.89,240.38s19.34-23.27,3.95-40.99c0,0,14.46-40.86-32.33-41.21,0,0-10.9-19.94-30.34-6.16,0,0-29.45-22.47-49.15,17.77,0,0-35.9-7.35-26.57,36.64,0,0-42.41-1.33-23.48,42.31,0,0-22.67,20.52,1.32,40.15,0,0,4.71,35.1,33.06,25.71,0,0,9.69,34.01,29.42,19.49,19.73-14.52,94.11-93.7,94.11-93.7Z"/><path fill="#7c4b33" d="m296.44,258.08c3.22-7.32,9.91-12.15,17.72-13.75-.52-34.52,19.31-58.14,48.95-61.38,32.09-3.51,63.5,18.17,67.78,57.43,4.29,39.25,3.8,71.51-28.28,75.02-17.97,1.97-42.03-5.5-60.49-19.35-10.29,1.36-22.34-.16-30.07-3.57-14.22-6.27-21.21-21.67-15.61-34.4Z"/><path d="m306.38,278.11l-2.17-.75c2.64-7.68,7.61-14.65,14-19.64l1.41,1.82c-6.05,4.72-10.75,11.31-13.25,18.58Z"/><rect width="2.3" height="10.91" x="311.09" y="268.22" transform="rotate(-29.69 312.253 273.675)"/><ellipse cx="373.65" cy="243.6" rx="3.65" ry="5.1" transform="rotate(-6.22 373.581 243.563)"/><ellipse cx="411.24" cy="238.26" rx="3.65" ry="5.1" transform="rotate(-6.22 411.16 238.221)"/><path d="M413.13 264.44c-6.94-1.82-13-6.42-16.62-12.62-3.62-6.2-4.65-13.74-2.82-20.69l2.22.59c-1.68 6.36-.74 13.26 2.58 18.94 3.31 5.68 8.86 9.89 15.21 11.55l-.58 2.23zM416.49 312.46c-3.9 2.13-8.51 3.5-13.76 4.08-18.54 2.03-42.41-5.54-60.93-19.29-10.21 1.26-22.29-.22-30.21-3.71-7.14-3.14-12.76-8.6-15.82-15.35-3.09-6.8-3.22-14.1-.38-20.56 3.14-7.14 9.53-12.28 17.61-14.21-.16-34.12 19.37-58.26 49.98-61.6l.25 2.29c-29.62 3.24-48.43 26.88-47.92 60.22v.95s-.92.19-.92.19c-7.78 1.6-13.94 6.36-16.9 13.08-2.58 5.85-2.44 12.49.37 18.69 2.83 6.24 8.04 11.28 14.66 14.2 7.7 3.39 19.53 4.79 29.45 3.48l.47-.06.38.28c17.85 13.39 41.83 21.08 59.67 19.13 6.07-.66 11.21-2.44 15.27-5.27l1.31 1.88c-.82.57-1.68 1.1-2.58 1.6z"/><path d="m314.18,243.35s32.17,61.96,41.3,75.58c13.24,19.75,43.12,20.57,65.78,8.17,22.65-12.4,9.04-106.34,9.04-106.34l-12.09-2.46c4.52,17.77,12.6,54.47,4.02,56.71,0,0-32.12-9.42-65.42,1.45,0,0-8.9-4.26-24.25-30.91l-18.38-2.21Z"/><path fill="#fff" d="m404.49,277.69l-28.89-.46s9.47,21.82,18.05,19.57c8.58-2.24,10.83-19.11,10.83-19.11Z"/><path d="M395.97 297.1c-.64.35-1.31.62-2.03.81-9.27 2.42-18.39-17.9-19.39-20.23l-.71-1.64 31.96.51-.17 1.28c-.09.66-2.11 15.13-9.66 19.26zm-18.57-18.7c3.1 6.53 10.23 18.78 15.96 17.28 6.42-1.7 9.06-13.01 9.77-16.87l-25.74-.41zM420.89 223.22s-18.14-6.26-16.78-21.73c0 0-8.13 19.18-24.54 13.43 0 0-18.17 29.58-47.87 33.57 0 0-29.88-.82-24.07-26.1 5.81-25.27 24.31-53.45 47.75-53.58 23.44-.13 58.66 14.95 65.89 28.18 7.23 13.23 6.59 28.93 6.59 28.93l-6.97-2.71z"/><polygon points="364.41 451.67 303.78 365.58 305.65 364.26 363.32 446.13 382.31 362.69 434.46 429.49 432.65 430.91 383.48 367.92 364.41 451.67"/><rect width="49.72" height="2.3" x="416.39" y="368.49" transform="rotate(-84.77 441.236 369.635)"/><polygon points="447.09 640.4 445.19 641.7 244.06 347.42 245.75 346.79 246.4 346.77 447.09 640.4"/><path d="m403.52,640.43c-49.39-36.98-130.73-154.74-131.55-155.92l-.36-.52,12.63-29.42-40.91-8.34-15.41-90.03,2.26-.39,15.14,88.48,42.14,8.59-13.24,30.85c5.96,8.6,83.26,119.37,130.67,154.87l-1.38,1.84Z"/><polygon points="467.71 637.42 465.48 636.83 507.72 476.33 473.57 462.42 499.81 439.27 472.17 359.85 474.34 359.09 502.48 439.97 477.87 461.69 510.46 474.96 510.2 475.94 467.71 637.42"/><rect width="2.3" height="254.9" x="615.37" y="437.02" transform="rotate(-21.17 616.635 564.565)"/><path d="m455.41,693.11c-5.25,1.16-10.47-2.17-11.63-7.43-1.16-5.26,2.17-10.48,7.42-11.64s10.47,2.17,11.63,7.43c1.16,5.26-2.17,10.48-7.42,11.64Zm-3.71-16.82c-4.02.89-6.56,4.88-5.67,8.9s4.87,6.57,8.89,5.68,6.56-4.88,5.67-8.9-4.87-6.57-8.89-5.68Z"/><path fill="#7c4b33" d="m387.25,645.53l131.43,3.87,60.56,19.35s40.7,27.9,45.1,29.66c12.89,5.16,11.6,25.8,0,24.51,0,0,3.87,20.64-16.75,19.35,0,0-3.87,15.48-20.62,11.61-16.75-3.87-42.52-18.06-42.52-18.06,0,0,42.52,21.93,36.08,28.37-6.44,6.45-7.73,15.48-38.66,0-31.01-15.52-36.08-18.06-36.08-18.06,0,0-46.39,20.64-81.18,10.32-5.91-1.75-11.11-3.28-15.68-4.61-26.41-7.7-46.57-29.63-51.06-56.8-3.19-19.32,1.74-39.35,29.37-49.51Z"/><path fill="#ffcc83" d="m223.6,592.65l155.92,36.17-15.45,132.73c-19.08-1.16-245.19-15.48-245.19-15.48-19.7-.9-37.92-10.78-49.42-26.83-11.51-16.03-15.02-36.46-9.57-55.45l82.53-253c9.84-34.22,61.85-55.46,68.09-37.47,12.71,36.65,48.71,99.97,38.86,134.2l-25.77,85.12Z"/><polygon fill="#f2f2f2" points="379.51 628.76 364.05 761.61 429.77 764.19 438.79 640.37 379.51 628.76"/><path d="m223.6,593.94c-.12,0-.25-.02-.37-.06-.68-.21-1.07-.93-.86-1.61l25.77-85.12c.21-.68.93-1.07,1.61-.86.68.21,1.07.93.86,1.61l-25.77,85.12c-.17.56-.68.92-1.23.92Z"/><path d="M438.79 641.66c-.09 0-.18 0-.27-.03l-261.58-56.75c-.7-.15-1.14-.84-.99-1.53.15-.7.84-1.14 1.53-.99l261.58 56.75c.7.15 1.14.84.99 1.53-.13.6-.67 1.02-1.26 1.02zM429.77 765.48s-.05 0-.08 0l-310.55-18.06c-.71-.04-1.25-.65-1.21-1.36.04-.71.63-1.25 1.36-1.21l310.55 18.06c.71.04 1.25.65 1.21 1.36-.04.69-.61 1.22-1.29 1.22z"/><path d="M369.21 719.05s-.1 0-.15 0c-.71-.08-1.21-.72-1.13-1.43l10.31-88.99c.08-.71.72-1.22 1.43-1.13.71.08 1.21.72 1.13 1.43l-10.31 88.99c-.08.66-.63 1.14-1.28 1.14zM332.48 742.26c-7.46 0-13.53-4.92-13.53-10.96s6.07-10.96 13.53-10.96 13.53 4.92 13.53 10.96-6.07 10.96-13.53 10.96zm0-19.35c-6.04 0-10.95 3.76-10.95 8.38s4.91 8.38 10.95 8.38 10.95-3.76 10.95-8.38-4.91-8.38-10.95-8.38zM742.6 607.44c-.88 0-1.74-.08-2.58-.25-3.29-.64-5.85-2.45-7.22-5.11-1.37-2.65-1.36-5.8.02-8.85 1.34-2.95 3.81-5.47 6.98-7.1 3.16-1.63 6.65-2.2 9.83-1.57 3.29.64 5.85 2.45 7.22 5.11 1.37 2.65 1.36 5.8-.02 8.85-1.34 2.95-3.81 5.47-6.98 7.1-2.32 1.2-4.82 1.82-7.24 1.82zm4.44-20.55c-2.01 0-4.1.52-6.06 1.53-2.65 1.37-4.71 3.45-5.81 5.88-1.05 2.32-1.08 4.66-.08 6.6 1 1.94 2.92 3.27 5.42 3.76 2.61.51 5.5.03 8.15-1.34 2.65-1.37 4.71-3.45 5.81-5.88 1.05-2.32 1.08-4.66.08-6.6h0c-1-1.94-2.92-3.27-5.42-3.76-.68-.13-1.38-.2-2.1-.2z"/><path fill="#f2f2f2" d="m835.09,551.8c-1.71,1.26-3.5,2.45-5.37,3.55l-49.66,39.05-71.09-117.55,49.35-29.1,76.77,104.05Z"/><path d="m608.88,538.48c-.44,0-.87-.22-1.11-.63-.36-.61-.16-1.4.45-1.77l146.9-87.7c.61-.36,1.4-.17,1.77.45s.16,1.4-.45,1.77l-146.9,87.7c-.21.12-.43.18-.66.18Z"/><path d="M764.8 570.72c-.44 0-.87-.23-1.11-.63l-54.12-91.57c-.36-.61-.16-1.4.45-1.77.61-.36 1.4-.16 1.77.45l54.12 91.57c.36.61.16 1.4-.45 1.77-.21.12-.43.18-.65.18zM800.39 495.46c-.23 0-.46-.06-.68-.19-.61-.37-.79-1.17-.42-1.77 10.01-16.23 17.36-33.86 21.84-52.41.17-.69.86-1.12 1.56-.95.69.17 1.12.86.95 1.56-4.54 18.81-11.99 36.69-22.15 53.16-.24.4-.67.61-1.1.61zM884.96 436.59h-11.92c-.71 0-1.29-.58-1.29-1.29s.58-1.29 1.29-1.29h11.27l58.99-32.09c.62-.34 1.41-.11 1.75.52s.11 1.41-.52 1.75l-59.56 32.4zM896.56 455.93h-11.92c-.71 0-1.29-.58-1.29-1.29s.58-1.29 1.29-1.29h11.27l58.99-32.09c.62-.34 1.41-.11 1.75.52s.11 1.41-.52 1.75l-59.56 32.4zM895.27 483.02h-11.92c-.71 0-1.29-.58-1.29-1.29s.58-1.29 1.29-1.29h11.27l58.99-32.09c.62-.34 1.41-.11 1.75.52s.11 1.41-.52 1.75l-59.56 32.4zM548.3 739.15c-.2 0-.4-.05-.59-.15l-36.48-19.03-2.75-6.89c-.26-.66.06-1.41.72-1.68.66-.26 1.41.06 1.68.72l2.4 6 35.64 18.59c.63.33.88 1.11.55 1.74-.23.44-.68.69-1.14.69zM607.59 743.55c-.21 0-.43-.05-.63-.17l-80.23-45.34-5.33-10.67c-.32-.64-.06-1.41.58-1.73.64-.32 1.41-.06 1.73.58l4.98 9.97 79.55 44.95c.62.35.84 1.14.49 1.76-.24.42-.67.66-1.12.66zM624.34 724.21c-.21 0-.43-.05-.63-.16l-76.44-42.79-4.03-10.76c-.25-.67.09-1.41.75-1.66.67-.25 1.41.09 1.66.75l3.7 9.88 75.61 42.33c.62.35.84 1.13.5 1.76-.24.42-.67.66-1.13.66z"/></g><g transform="translate(435.519 148.197) scale(.60044)"><path fill="#ff9996" d="m227.24,229.97l-81.05-7.25s-76.21-83.37-107.67-70.08c-31.45,13.29,4.84,44.71,21.78,54.37,16.94,9.67,56.86,53.17,56.86,53.17l9.68,105.12,100.41,48.33,110.09-37.46-110.09-146.2Z"/><path fill="#ffcc83" d="m190.94,415.17l-21.47,37.51c-2.37,4.14-8.54,3.43-9.91-1.14l-12.01-40.05,27.68-326.28c1.02-11.97,11.55-20.85,23.54-19.84h0c11.98,1.01,20.87,11.54,19.86,23.51l-27.68,326.28Z"/><path fill="#ff9996" d="m88.12,296.43s-20.57-15.71-1.21-31.42c19.36-15.71,41.13-14.5,41.13-14.5,0,0,24.19-1.21,32.66,16.92,8.47,18.12-72.58,29-72.58,29Z"/><path fill="#ff9996" d="m109.9,342.35s-35.08-18.12-27.82-43.5c4.83-16.88,24.12-25.74,36.49-29.78,6.59-2.15,13.53-2.95,20.43-2.35,11.29.99,28.98,3.95,33.81,12.79,7.26,13.29,0,29,0,29l-62.91,33.83Z"/><path fill="#ff9996" d="M149.9 376.41s-48.47-20.77-44.84-32.85 19.36-38.67 42.34-41.08c13.75-1.45 25.34 1 32.43 3.2 5.38 1.67 9.65 5.88 11.24 11.28 1.66 5.64 2.11 12.94-3.75 18.15-10.89 9.67-18.15 9.67-18.15 9.67l-19.28 31.64zM337.33 376.18s-15.73-112.37-22.99-118.41c-4.97-4.14-21.88-27.01-32.03-40.99-5.16-7.11-11.23-13.52-18.07-19.05-10.28-8.32-25.96-21.43-35.4-31.39-9.46-9.98-26.44-5.1-28.7 8.46-1.34 8.01.56 19.47 8.95 35.85 15.12 29.52 16.18 57.47 14.28 76.11-1.68 16.46 2.73 32.95 12.54 46.28l39.72 54.02 61.7-10.87z"/><path d="M161.29 271.95s-.1 0-.14 0c-.66-.08-1.14-.68-1.06-1.34.11-.88-.05-1.75-.48-2.66-8.02-17.16-31.27-16.23-31.51-16.22h-.06s-.06 0-.06 0c-.22 0-21.56-.98-40.3 14.23-.52.42-1.28.34-1.7-.18-.42-.52-.34-1.28.18-1.7 19.19-15.57 40.37-14.85 41.9-14.77 1.47-.05 25.27-.54 33.75 17.61.61 1.31.84 2.64.69 3.97-.07.61-.6 1.07-1.2 1.07zM160.59 360.06c-.21 0-.43-.06-.63-.18-.57-.35-.75-1.09-.4-1.66l8.94-14.67h.68c.06 0 7.02-.19 17.34-9.36 4.41-3.91 5.55-9.6 3.39-16.9-1.47-4.98-5.37-8.9-10.44-10.47-7.15-2.22-18.5-4.57-31.94-3.15-9.6 1.01-28.79 9.73-39.77 36.01-.26.62-.97.91-1.58.65-.62-.26-.91-.96-.65-1.58 5.38-12.86 20.22-35.22 41.75-37.49 13.85-1.45 25.54.96 32.91 3.25 5.84 1.81 10.34 6.33 12.04 12.09 2.41 8.16.99 14.87-4.1 19.39-9.3 8.25-16.09 9.68-18.24 9.92l-8.26 13.56c-.23.37-.63.58-1.03.58z"/><path d="M174.35 305.4c-.11 0-.23-.02-.34-.05-.64-.19-1.01-.86-.82-1.5 1.5-5.14 3.31-15.05-1.44-23.76-4.64-8.49-22.57-11.27-32.85-12.17-6.77-.59-13.48.18-19.95 2.29-11.51 3.76-26.65 10.85-33.38 23.3-.32.59-1.05.81-1.64.49-.59-.32-.81-1.05-.49-1.64 7.11-13.15 22.83-20.55 34.76-24.45 6.78-2.21 13.82-3.02 20.91-2.4 13.15 1.15 29.85 4.42 34.77 13.42 5.17 9.47 3.25 20.1 1.64 25.6-.15.53-.64.87-1.16.87zM235.92 334.25c-.37 0-.74-.17-.98-.49-9.95-13.53-14.48-30.27-12.76-47.12 1.37-13.43 1.37-34.25-6.43-57.2-.22-.63.12-1.32.76-1.53.63-.21 1.32.13 1.53.76 7.93 23.36 7.94 44.55 6.54 58.22-1.66 16.26 2.71 32.39 12.31 45.44.4.54.28 1.29-.26 1.69-.22.16-.47.23-.71.23z"/><path fill="#ff9996" d="m743.19,304.14s-24.46,48.41-103.12,61.41c-78.64,13.01-40.83-37.21-40.83-37.21l12.13-24.14,11.3-22.49,69.51-49.32c-.04.42-.04.83-.04,1.25-.29,26.59,51.06,70.49,51.06,70.49Z"/><path d="m692.18,232.39c-.04.42-.04.83-.04,1.25-6.43,26.73-22.78,62.71-64.41,70.72-6.86,1.32-12.24,1.18-16.35-.16l11.3-22.49,69.51-49.32Z"/><polygon fill="#f2f2f2" points="736.1 292.61 735.81 297.46 734.71 316.26 727.34 441.65 727.18 444.33 727.1 445.94 726.95 448.33 713.88 671.01 555.04 671.01 563.99 502.12 569.58 396.58 572.38 343.58 572.58 339.99 573.46 323.27 580.56 325.15 587.11 326.88 598.21 329.83 637.83 340.32 639.55 340.78 639.62 340.74 640.63 340.24 730.4 295.45 732.57 294.38 736.1 292.61"/><polygon fill="#f90065" points="673 671.01 594.73 671.01 629.75 381.27 644.38 381.27 644.4 381.52 673 671.01"/><polygon fill="#f2f2f2" points="200.63 406.39 334.91 353.22 351.85 387.05 226.03 447.47 200.63 406.39"/><path fill="#ff9996" d="m731.91,210.96c-4.08-7.22-11.49-11.5-19.72-12.35-3.01-35.64-25.93-57.94-56.88-58.23-33.5-.31-63.72,25.27-64.1,66.17-.38,40.9,3.43,74.1,36.94,74.41,18.76.18,42.85-10,60.49-26.17,10.77.34,23.06-2.46,30.69-6.77,14.05-7.93,19.68-24.52,12.59-37.07Z"/><path d="m723.7,232.63c-3.32-7.22-8.86-13.54-15.59-17.78l1.27-2.02c7.12,4.49,12.97,11.16,16.49,18.8l-2.17.99Z"/><rect width="11.31" height="2.38" x="711.54" y="227.47" transform="rotate(-65.99 717.244 228.655)"/><ellipse cx="650.67" cy="203.99" rx="5.28" ry="3.79" transform="rotate(-89.46 650.667 203.984)"/><ellipse cx="611.29" cy="202.35" rx="5.28" ry="3.79" transform="rotate(-89.46 611.288 202.346)"/><path d="M612.03 229.53l-.83-2.23c6.39-2.37 11.69-7.28 14.53-13.48 2.84-6.2 3.1-13.41.71-19.79l2.23-.83c2.61 6.97 2.32 14.85-.78 21.61-3.1 6.77-8.88 12.13-15.87 14.72zM627.55 247.65l-.06-2.38c9.69-.25 19.15-6.63 23.02-15.51l2.19.95c-4.28 9.86-14.38 16.66-25.14 16.94z"/><path d="m628.65,282.16c-.17,0-.34,0-.51,0l.02-2.38c.15,0,.31,0,.47,0,18.56,0,42.28-10.35,59.2-25.86l.36-.33.48.02c10.36.33,22.47-2.33,30.06-6.62,6.54-3.69,11.4-9.42,13.68-16.15,2.27-6.67,1.72-13.53-1.54-19.3-3.74-6.62-10.6-10.91-18.8-11.75l-.98-.1-.08-.98c-2.91-34.42-24.78-56.85-55.7-57.14l.02-2.38c31.96.3,54.62,23.17,57.97,58.35,8.55,1.16,15.68,5.79,19.65,12.83,3.6,6.37,4.21,13.91,1.73,21.24-2.47,7.28-7.71,13.48-14.76,17.45-7.82,4.42-20.12,7.18-30.83,6.94-17.56,15.94-41.17,26.16-60.44,26.16Z"/><polygon fill="#f90065" points="612.97 360.44 630.32 381.52 644.94 381.52 667.48 352.41 639.55 340.77 612.97 360.44"/><polygon fill="#f2f2f2" points="609.2 294.27 639.55 340.77 604.73 403.57 577.93 316.57 609.2 294.27"/><path fill="#b8c2d8" d="m535.73,323.01s-206.18,226.34-223.16,277.05c-15.52,46.35,52.38,74.33,101.58,63.23,29-6.55,52.81-25.33,66.06-49.08l117.29-156.94-61.77-134.25Z"/><polygon fill="#f2f2f2" points="673.52 403.57 639.55 340.77 718.63 276.42 736.09 292.61 673.52 403.57"/><path fill="#b8c2d8" d="m983.62,654.55c-2.14,2.36-4.5,4.51-7.05,6.43-4.04,3.03-8.54,5.46-13.39,7.17-.06.04-.12.06-.19.07-5.17,1.81-10.73,2.79-16.52,2.79h-267.05c2.36-131.54,28.05-269.94,43.66-342.74,1.63-7.61,3.16-14.5,4.52-20.59,1.03-4.53,1.96-8.62,2.81-12.23.21-.89.41-1.76.6-2.6.3-1.32.77-2.55,1.38-3.69,3.44-6.37,11.2-9.55,18.36-6.89l27.99,10.39,27.26,1.11,66.74,2.71,43.25,139.64.1.3,49.61,160.19.91,2.95,17.02,54.98Z"/><path d="m763.03,371.96c-.15,15.14.44,33.08,2.2,54.13l.07.83-38.12,17.4-2.69,1.23,2.6.37,29.45,4.29-.17,1.18c-.25,1.69-16.11,110.29-22.32,219.6h-2.38c5.87-103.64,20.42-206.58,22.17-218.76l-26.89-3.91-10.8-1.57,11.19-5.11,35.45-16.18c-5.69-68.49,1.32-104.04,3.97-117.46.23-1.2.44-2.21.58-3.04l2.35.41c-.15.86-.35,1.88-.59,3.09-1.39,7.1-4.03,20.46-5.32,41.71-.4,6.5-.67,13.75-.74,21.79Z"/><path fill="#b8c2d8" d="m588.5,313.18c-.34,3.24-.81,7.87-1.39,13.7-.42,4.3-.91,9.26-1.44,14.83h0c-.1,1.03-.19,2.07-.29,3.12-1.74,18.76-3.91,43.75-6.06,72.92-1.56,21.31-3.11,44.86-4.48,69.84-3.11,56.81-5.26,121.07-4.43,183.42h-108.77l9.1-42.85,11.01-51.86,44.26-208.44,9.47-44.57h0s.01-.01.01-.01l.3-.08,30.96-8.84,17-5.09c1.27-.39,2.53-.05,3.44.71.9.74,1.44,1.91,1.31,3.21Z"/><polygon points="573.68 340.45 572.38 343.58 559.52 374.73 527.45 452.42 551.81 472.61 525.2 480.03 529.95 547.66 538.6 671.01 536.21 671.01 527.77 550.59 522.69 478.26 546.79 471.55 524.59 453.14 558.17 371.78 571.48 339.54 572.58 339.99 573.68 340.45"/><path d="m689.04,220.12c-.94,1.28-3.01.52-2.86-1.05.69-7.27-.61-14.62,3.42-20.72,3.22-4.86,7.21-14.77,2.23-20.08-3.76-4.01-12.01-2.46-20.1-2.23-24.04.69-68.79,1.24-87.1-22.31-5.61-7.21-11.23-24.19-11.24-33.32-.02-9.13,2.18-18.11,4.36-26.97,18.7,14.05,40.78,23.59,63.84,27.56,14.9,2.57,30.48,2.94,44.24,9.19,13.76,6.24,25.43,20.87,21.93,35.56,10.45-2.76,22.47,2.7,27.26,12.38,4.69,9.48-7.45,26.91-7.45,26.91-6.28-4.18-14.43-6.85-22.33-2.23-6.7,3.91-11.47,10.85-16.19,17.32Z"/><polygon points="604.41 406.6 584.53 342.07 586.81 341.37 605.05 400.55 638.16 340.82 615.31 305.82 617.31 304.52 640.94 340.72 604.41 406.6"/><polygon points="673.5 406.04 638.5 341.34 640.6 340.21 673.54 401.11 705.35 344.7 707.42 345.87 673.5 406.04"/><rect width="213.09" height="2.39" x="397.34" y="470.89" transform="rotate(-78.04 503.85 472.075)"/><path fill="#ff9996" d="m1009.95,215.46l31.96-78.07c2.46-6.01,5.47-11.76,9-17.19,14.34-22.12,52.98-77.5,77.28-72.33,30.3,6.45-29.93,78.7-29.93,78.7,0,0,67.81-61.94,80.44-63.22,12.63-1.29,23.99,19.34-18.94,67.04-42.93,47.7-49.24,47.7-29.04,41.26,20.2-6.45,74.5-52.86,92.18-37.39,17.68,15.47-68.18,70.91-68.18,70.91,0,0,57.23-25,70.58-9,12.1,14.5-28.42,31.38-61.7,47.12-22.99,10.87-21.67,11.18-36.29,25.37-7.67,7.44-15.23,18.86-25.34,21.63-29.92,8.21-91.67-1.12-92.01-74.81Z"/><path fill="#b8c2d8" d="m435.23,518.39c-3.23-2.57-87.01-142.21-87.01-142.21l-129.44,62.83,86.9,173c4.89,13.9,13.59,26.6,25.92,36.41,35.39,28.14,87.28,21.85,115.9-14.06,28.62-35.91,23.12-87.83-12.27-115.97Z"/><path d="m434.56,519.23c-.59-.47-2.39-1.9-58.09-93.22l1.83-1.11c47.82,78.38,56.63,91.71,57.63,92.68l-1.36,1.65Z"/><path fill="#b8c2d8" d="m913.17,338.72c-8.47-12.08-53.23-91.83-116.46-37.86-54.91,46.86-33.04,88.39-8.14,136.95,25.4,49.54,88.31,132.91,88.31,132.91,0,0,74.7,68.03,138.98.2,43.69-46.11-23.61-127.08-23.61-127.08l-79.08-105.11Z"/><path fill="#f9f9f9" d="m959.06,87.43s11.9,67.41,77.11,104.6c65.22,37.19,97.77,74.75,106.13,112.23,0,0,72.76-57.78,106.7-80.64,0,0-.12-64.3-80.75-102.94-67.4-32.3-68.31-89.05-67.64-101.61.05-.98-1.06-1.58-1.85-1-8.77,6.44-43.72,31.99-65.84,46.62-24.95,16.51-73.86,22.74-73.86,22.74Z"/><path fill="#b8c2d8" d="M1015.25 114.18c-1.55 0-3.04-.85-3.78-2.33-1.05-2.09-.21-4.63 1.87-5.68l76.33-38.44c2.09-1.05 4.63-.21 5.69 1.87 1.05 2.09.21 4.63-1.87 5.68l-76.33 38.44c-.61.31-1.26.45-1.9.45zM1029.68 144.43c-1.55 0-3.04-.85-3.78-2.33-1.05-2.09-.21-4.63 1.87-5.68l76.33-38.44c2.09-1.05 4.64-.21 5.69 1.87 1.05 2.09.21 4.63-1.87 5.68l-76.33 38.44c-.61.31-1.26.45-1.9.45zM1045.35 165.02c-1.55 0-3.04-.85-3.78-2.33-1.05-2.09-.21-4.63 1.87-5.68l76.33-38.44c2.09-1.05 4.63-.21 5.69 1.87 1.05 2.09.21 4.63-1.87 5.68l-76.33 38.44c-.61.31-1.26.45-1.9.45zM1076.75 182.03c-1.55 0-3.04-.85-3.78-2.33-1.05-2.09-.21-4.63 1.87-5.68l76.33-38.44c2.09-1.05 4.64-.21 5.69 1.87 1.05 2.09.21 4.63-1.87 5.68l-76.33 38.44c-.61.31-1.26.45-1.9.45zM1100.89 199.01c-1.55 0-3.04-.85-3.78-2.33-1.05-2.09-.21-4.63 1.87-5.68l76.33-38.44c2.09-1.05 4.63-.21 5.69 1.87 1.05 2.09.21 4.63-1.87 5.68l-76.33 38.44c-.61.31-1.26.45-1.9.45zM1138.9 233.65c-1.55 0-3.04-.85-3.78-2.33-1.05-2.09-.21-4.63 1.87-5.68l49.07-24.71c2.09-1.05 4.63-.21 5.69 1.87 1.05 2.09.21 4.63-1.87 5.68l-49.07 24.71c-.61.31-1.26.45-1.9.45zM1103.84 226.3c-1.55 0-3.04-.85-3.78-2.33-1.05-2.09-.21-4.63 1.87-5.68l49.07-24.71c2.09-1.05 4.63-.21 5.69 1.87 1.05 2.09.21 4.63-1.87 5.68l-49.07 24.71c-.61.31-1.26.45-1.9.45z"/><path fill="#ff9996" d="m988.87,257.09s-5.98-60.94,17.01-85.11c17.14-18.02,28.23-28.65,35.27-39.41,6.07-9.28,18.92-11.82,27.78-5.14,4.93,3.72,7.88,9.66,4.7,19.18-8.47,25.37-21.78,56.79-21.78,56.79,0,0,15.73,53.17,3.63,80.96-12.1,27.79-66.68,3.47-66.61-27.26Z"/><polygon fill="#f2f2f2" points="987.09 227.72 1122.2 283.95 1100.42 339.78 972.29 270.35 987.09 227.72"/><path fill="#b8c2d8" d="m977.69,254.54l140.49,50.57-71.84,241.48c-2.19,7.38-5.73,14.28-10.51,20.31-13.73,17.35-60.28,43.26-98.72,21.52-52.48-29.68-48.09-66.08-39.32-95.91,8.77-29.84,79.9-237.98,79.9-237.98Z"/><path d="M902.28 478.89c-.13 0-.25-.02-.38-.06-.64-.21-.98-.89-.77-1.53l35.08-106.33c.21-.63.89-.98 1.53-.77.64.21.98.89.77 1.53l-35.08 106.33c-.17.51-.64.83-1.15.83zM892.6 592.47c-.38 0-.76-.18-1-.52l-96.78-140.16c-.38-.55-.24-1.3.31-1.68.55-.38 1.3-.24 1.68.31l96.78 140.16c.38.55.24 1.3-.31 1.68-.21.14-.45.21-.69.21zM1058.05 233.6c-.59 0-1.11-.43-1.2-1.03-2.39-15.99-6.12-28.71-6.16-28.84l-.12-.41.17-.4c.13-.31 13.39-31.66 21.74-56.7 2.58-7.74 1.14-13.74-4.28-17.83-3.91-2.95-8.78-4.09-13.71-3.24-5.05.88-9.54 3.82-12.33 8.08-5.67 8.66-14.07 17.38-25.69 29.45-3 3.12-6.23 6.47-9.72 10.14-.46.48-1.23.5-1.71.04-.48-.46-.5-1.22-.04-1.71 3.49-3.67 6.72-7.03 9.73-10.15 11.53-11.97 19.86-20.62 25.4-29.09 3.15-4.81 8.23-8.14 13.93-9.14 5.6-.98 11.14.34 15.58 3.69 6.26 4.72 8.03 11.82 5.12 20.53-7.88 23.6-20.08 52.76-21.64 56.48.67 2.34 3.94 14.22 6.11 28.75.1.66-.36 1.27-1.02 1.37-.06 0-.12.01-.18.01z"/></g></svg>